<?xml version="1.0" encoding="UTF-8" standalone="no"?>
<svg
   xmlns:dc="http://purl.org/dc/elements/1.1/"
   xmlns:cc="http://creativecommons.org/ns#"
   xmlns:rdf="http://www.w3.org/1999/02/22-rdf-syntax-ns#"
   xmlns:svg="http://www.w3.org/2000/svg"
   xmlns="http://www.w3.org/2000/svg"
   xmlns:sodipodi="http://sodipodi.sourceforge.net/DTD/sodipodi-0.dtd"
   xmlns:inkscape="http://www.inkscape.org/namespaces/inkscape"
   width="310.00189"
   height="310.00189"
   version="1"
   enable-background="new"
   id="svg9"
   sodipodi:docname="conservation_on.svg"
   inkscape:version="0.92.5 (2060ec1f9f, 2020-04-08)">
  <metadata
     id="metadata13">
    <rdf:RDF>
      <cc:Work
         rdf:about="">
        <dc:format>image/svg+xml</dc:format>
        <dc:type
           rdf:resource="http://purl.org/dc/dcmitype/StillImage" />
      </cc:Work>
    </rdf:RDF>
  </metadata>
  <sodipodi:namedview
     pagecolor="#ffffff"
     bordercolor="#666666"
     borderopacity="1"
     objecttolerance="10"
     gridtolerance="10"
     guidetolerance="10"
     inkscape:pageopacity="0"
     inkscape:pageshadow="2"
     inkscape:window-width="1920"
     inkscape:window-height="1005"
     id="namedview11"
     showgrid="false"
     inkscape:zoom="2.1532411"
     inkscape:cx="77.731911"
     inkscape:cy="173.08193"
     inkscape:window-x="0"
     inkscape:window-y="0"
     inkscape:window-maximized="1"
     inkscape:current-layer="svg9" />
  <defs
     id="defs5">
    <filter
       id="a"
       color-interpolation-filters="sRGB">
      <feBlend
         mode="darken"
         in2="BackgroundImage"
         id="feBlend2" />
    </filter>
  </defs>
  <path
     d="M 45.062837,1 C 45.062837,1 1,1 1,46.313947 V 264.58089 c 0,43.93014 44.062837,43.93014 44.062837,43.93014 H 265.37702 c 44.06284,0 44.06284,-43.93014 44.06284,-43.93014 V 44.930146 c 0,0 0,-43.930146 -44.06284,-43.930146 z M 111.1571,44.930146 h 88.12567 c 44.06284,0 45.20846,51.639892 44.06284,43.930149 V 110.82537 H 199.28277 V 88.860295 H 111.1571 V 220.65074 h 88.12567 v -21.96508 h 44.06284 v 21.96508 c 0,0 0,43.93015 -44.06284,43.93015 H 111.1571 c 0,0 -44.062845,0 -44.062845,-43.93015 V 88.860295 c 0,-43.930149 44.062845,-43.930149 44.062845,-43.930149 z"
     id="path7"
     inkscape:connector-curvature="0"
     style="color:#5d656b;fill:#5d656b;stroke-width:21.99822044" />
</svg>
